# xmcd
#
# Track frame offsets: 
#        150
#        18523
#        29344
#        43928
#        57341
#        68198
#        84378
#        94426
#        117601
#        127476
#
# Disc length: 1811 seconds
#
# Revision: 0
# Processed by: cddbd v1.4PL0 Copyright (c) Steve Scherf et al.
# Submitted via: ExactAudioCopy v0.95a3
#
DISCID=9707110a
DTITLE=Various Artist - Home on the Road
DYEAR=2002
DGENRE=Country
TTITLE0=David Frizzell/Home on the Road
TTITLE1=Roger Miller/King of the Road
TTITLE2=Red Sovine/It'll Come Back
TTITLE3=David Allen Coe/White Line Fever
TTITLE4=Nashville Guitars/500 Miles from Home
TTITLE5=Merle Haggard/Ramblin' Fever
TTITLE6=Del Reeves/Lookin' at the World Through a Windshield
TTITLE7=Sandy Posey/Carry Me Back to Old Virginia
TTITLE8=Claude Gray/I'll Just Have a Cup of Coffee (Then I'll Go)
TTITLE9=Harden Trio/Sneaking 'Cross the Border
EXTD=
EXTT0=
EXTT1=
EXTT2=
EXTT3=
EXTT4=
EXTT5=
EXTT6=
EXTT7=
EXTT8=
EXTT9=
PLAYORDER=
